<svg width="270" height="341" viewBox="0 0 270 341" fill="none" xmlns="http://www.w3.org/2000/svg">
<g filter="url(#filter0_d_898_17938)">
<path d="M234 48.5747C239.1 46.2665 244.524 48.951 246.599 50.5818C251.083 55.8528 246.628 64.961 243.839 68.8562C239.115 75.5643 237.339 83.7062 237.042 86.9387C233.412 115.679 208.067 134.409 195.849 140.181L188.71 151.378C185.474 152.62 179.668 158.517 177.169 161.31C174.613 164.091 169.645 166.084 167.481 166.733C164.052 167.401 160.17 169.198 158.657 170.013C154.635 172.217 149.877 172.637 148.001 172.571C141.929 172.945 143.117 169.293 144.47 167.419L149.022 160.908C93.1203 186.871 81.2702 236.848 82.3329 258.592C84.2735 263.39 90.6198 268.214 93.5504 270.026C114.37 279.426 121.563 295.879 122.557 302.93C124.085 313.556 122.497 319.395 121.512 320.986C119.453 321.945 118.466 317.266 118.23 314.807C118.825 312.806 116.449 311.106 115.187 310.505C112.548 309.281 111.248 305.516 110.928 303.787C111.523 301.786 108.574 300.352 107.026 299.885C105.167 299.557 103.161 296.878 102.391 295.579C100.537 293.857 98.0315 294.045 97.0105 294.355C93.0919 294.986 90.8179 292.1 90.1708 290.578C86.4476 291.317 84.7947 288.192 84.4336 286.537C82.6663 287.89 81.008 286.198 80.3998 285.183C81.7457 291.982 79.4694 294.18 78.1631 294.429C74.7288 296.492 74.4296 300.228 74.7093 301.838C75.2836 305.416 75.3309 310.334 75.2827 312.345C75.4628 316.637 74.3623 318.63 73.7894 319.09C59.7822 294.12 65.9707 270.713 70.8158 262.131C58.5878 232.553 57.6464 204.394 58.7043 194.012C57.4247 195.867 55.3899 196.743 54.5325 196.949C51.6929 197.011 52.8055 189.493 53.7168 185.726C55.4093 178.043 62.2161 170.718 65.4079 168.017C79.6567 126.972 118.539 96.6187 136.199 86.5725C143.261 83.0189 158.189 74.8413 164.771 71.1968C192.641 53.5123 222.536 48.7469 234 48.5747Z" fill="#CBCBCB"/>
</g>
<path d="M227.928 71.2319C239.528 64.8319 245.428 55.2319 246.928 51.2319C248.528 52.4319 248.595 54.3986 248.428 55.2319C244.828 63.6319 236.261 69.7319 232.428 71.7319C219.228 78.1319 217.261 91.0653 217.928 96.7319C215.928 114.732 198.428 125.565 189.928 128.732C209.928 119.132 215.595 103.065 215.928 96.2319C213.528 83.4319 222.928 74.2319 227.928 71.2319Z" fill="#A9A9A9"/>
<path d="M171.428 135.232C162.228 137.232 152.261 153.398 148.428 161.232C123.228 172.432 104.594 194.565 98.4277 204.232C112.428 177.832 135.928 163.232 145.928 159.232C157.128 139.232 167.594 134.898 171.428 135.232Z" fill="#A9A9A9"/>
<path d="M65.4277 168.232C63.4277 173.732 58.8277 187.532 58.4277 200.732C58.655 193.232 57.8277 180.632 65.4277 168.232Z" fill="#A9A9A9"/>
<path d="M88.9277 270.732C104.128 279.932 109.928 296.065 110.928 302.732C109.728 300.732 108.928 300.732 107.928 300.232C106.728 289.032 94.7611 275.899 88.9277 270.732Z" fill="#B6B6B6"/>
<path d="M80.4277 285.232C79.4277 279.899 76.1277 267.032 72.9277 262.232C75.0944 264.065 78.4277 270.732 80.4277 285.232Z" fill="#B6B6B6"/>
<defs>
<filter id="filter0_d_898_17938" x="48.7168" y="47.6772" width="203.791" height="281.436" filterUnits="userSpaceOnUse" color-interpolation-filters="sRGB">
<feFlood flood-opacity="0" result="BackgroundImageFix"/>
<feColorMatrix in="SourceAlpha" type="matrix" values="0 0 0 0 0 0 0 0 0 0 0 0 0 0 0 0 0 0 127 0" result="hardAlpha"/>
<feOffset dy="4"/>
<feGaussianBlur stdDeviation="2"/>
<feComposite in2="hardAlpha" operator="out"/>
<feColorMatrix type="matrix" values="0 0 0 0 0 0 0 0 0 0 0 0 0 0 0 0 0 0 0.25 0"/>
<feBlend mode="normal" in2="BackgroundImageFix" result="effect1_dropShadow_898_17938"/>
<feBlend mode="normal" in="SourceGraphic" in2="effect1_dropShadow_898_17938" result="shape"/>
</filter>
</defs>
</svg>
